<?xml version="1.0" standalone="no"?>
<!DOCTYPE svg PUBLIC "-//W3C//DTD SVG 20010904//EN"
 "http://www.w3.org/TR/2001/REC-SVG-20010904/DTD/svg10.dtd">
<svg version="1.0" xmlns="http://www.w3.org/2000/svg"
 width="1280.000000pt" height="720.000000pt" viewBox="0 0 1280.000000 720.000000"
 preserveAspectRatio="xMidYMid meet">
<metadata>
Created by potrace 1.15, written by Peter Selinger 2001-2017
</metadata>
<g transform="translate(0.000000,720.000000) scale(0.100000,-0.100000)"
fill="#673ab7" stroke="none">
<path d="M4248 6120 c-122 -21 -226 -78 -314 -172 -55 -58 -90 -119 -120 -208
-18 -53 -19 -135 -22 -2060 -3 -2211 -6 -2097 59 -2229 65 -132 226 -255 368
-281 74 -14 4039 -14 4111 0 152 29 306 144 376 282 56 111 54 2 54 2184 0
1297 -4 2030 -10 2065 -34 181 -181 339 -380 406 -53 17 -140 18 -2065 19
-1105 1 -2031 -2 -2057 -6z m2562 -1485 l0 -525 505 0 505 0 0 -475 0 -475
-515 0 -515 0 0 -515 0 -515 -485 0 -485 0 0 515 0 515 -525 0 -525 0 0 480 0
480 525 0 525 0 0 513 c0 283 3 517 7 520 3 4 226 7 495 7 l488 0 0 -525z"/>
</g>
</svg>
