<?xml version="1.0" encoding="utf-8"?>
<!-- Generator: Adobe Illustrator 24.0.0, SVG Export Plug-In . SVG Version: 6.00 Build 0)  -->
<svg version="1.1" id="Layer_1" xmlns="http://www.w3.org/2000/svg" xmlns:xlink="http://www.w3.org/1999/xlink" x="0px" y="0px"
	 viewBox="0 0 774.4 297.1" style="enable-background:new 0 0 774.4 297.1;" xml:space="preserve">
<style type="text/css">
	.st0{fill:#D4DDE5;}
	.st1{fill:#28547C;}
	.st2{fill:none;stroke:#3F3D56;stroke-miterlimit:10;}
	.st3{fill:#2F2E41;}
	.st4{fill:#FFFFFF;}
	.st5{opacity:0.3;fill:#6C63FF;enable-background:new    ;}
</style>
<path class="st0" d="M375.1,8.4c-61.9,0-106.4,39.7-106.4,132.4c0,105.1,44.5,132.9,106.4,132.9s109-30.5,109-132.9
	C484.1,31.4,437,8.4,375.1,8.4L375.1,8.4z M375.5,238.9c-42.9,0-65.3-25.2-65.3-97.9c0-64.2,23.3-98.1,66.2-98.1
	s66.2,22.2,66.2,98.1C442.6,211.9,418.4,238.9,375.5,238.9L375.5,238.9z"/>
<path class="st1" d="M231.6,200.5H206v-75.4c0-8.3-6.8-15.1-15.1-15.1l0,0h-6c-8.3,0-15.1,6.8-15.1,15.1l0,0v75.4H97.6
	c-4.8,0-8.6-3.9-8.6-8.6c0-1.4,0.3-2.8,1-4l76.4-144.7c3.9-7.4,1.1-16.5-6.3-20.4c-0.2-0.1-0.4-0.2-0.6-0.3l-4.5-2.1
	c-7.3-3.4-16-0.6-19.8,6.5L42,201.2c-1.6,3-2.4,6.3-2.4,9.7c0,11.3,9.2,20.5,20.5,20.5h109.7V279c0,10,8.1,18.1,18.1,18.1
	S206,289,206,279v-47.7h25.6c8.5,0,15.5-6.9,15.5-15.5l0,0C247.1,207.4,240.1,200.5,231.6,200.5L231.6,200.5L231.6,200.5z"/>
<path class="st1" d="M705.7,200.5h-25.6v-75.4c0-8.3-6.8-15.1-15.1-15.1h-6c-8.3,0-15.1,6.8-15.1,15.1v75.4h-72.2
	c-4.8,0-8.6-3.9-8.6-8.6c0-1.4,0.3-2.8,1-4l76.4-144.7c3.9-7.4,1.1-16.5-6.3-20.4c-0.2-0.1-0.4-0.2-0.6-0.3l-4.5-2.1
	c-7.3-3.4-16-0.6-19.8,6.5l-93.2,174.4c-1.6,3-2.4,6.3-2.4,9.7c0,11.3,9.2,20.5,20.5,20.5h109.7V279c0,10,8.1,18.1,18.1,18.1
	s18.1-8.1,18.1-18.1v-47.7h25.6c8.5,0,15.4-6.9,15.4-15.5l0,0C721.1,207.4,714.2,200.5,705.7,200.5
	C705.7,200.5,705.7,200.5,705.7,200.5L705.7,200.5z"/>
<g>
	<path class="st2" d="M238.7,191.6h-25.6v-75.4c0-8.3-6.8-15.1-15.1-15.1l0,0h-6c-8.3,0-15.1,6.8-15.1,15.1l0,0v75.4h-72.2
		c-4.8,0-8.6-3.9-8.6-8.6c0-1.4,0.3-2.8,1-4l76.4-144.7c3.9-7.4,1.1-16.5-6.3-20.4c-0.2-0.1-0.4-0.2-0.6-0.3l-4.5-2.1
		c-7.3-3.4-16-0.6-19.8,6.5L49.1,192.4c-1.6,3-2.4,6.3-2.4,9.7c0,11.3,9.2,20.5,20.5,20.5h109.7v47.7c0,10,8.1,18.1,18.1,18.1
		s18.1-8.1,18.1-18.1v-47.7h25.6c8.5,0,15.5-6.9,15.5-15.5l0,0C254.1,198.6,247.2,191.6,238.7,191.6L238.7,191.6z"/>
	<path class="st2" d="M718.9,191.6h-25.6v-75.4c0-8.3-6.8-15.1-15.1-15.1h-6c-8.3,0-15.1,6.8-15.1,15.1v75.4h-72.2
		c-4.8,0-8.6-3.9-8.6-8.6c0-1.4,0.3-2.8,1-4l76.4-144.7c3.9-7.4,1.1-16.5-6.3-20.4c-0.2-0.1-0.4-0.2-0.6-0.3l-4.5-2.1
		c-7.3-3.4-16-0.6-19.8,6.5l-93.2,174.4c-1.6,3-2.4,6.3-2.4,9.7c0,11.3,9.2,20.5,20.5,20.5h109.7v47.7c0,10,8.1,18.1,18.1,18.1
		s18.1-8.1,18.1-18.1v-47.7h25.6c8.5,0,15.5-6.9,15.5-15.5l0,0C734.4,198.6,727.5,191.6,718.9,191.6
		C718.9,191.6,718.9,191.6,718.9,191.6L718.9,191.6z"/>
	<path class="st2" d="M389.2,0.5c-61.9,0-106.4,39.7-106.4,132.4c0,105.1,44.5,132.9,106.4,132.9s109-30.5,109-132.9
		C498.2,23.5,451.1,0.5,389.2,0.5L389.2,0.5z M389.6,230.9c-42.9,0-65.3-25.2-65.3-97.9c0-64.2,23.3-98.1,66.2-98.1
		s66.2,22.2,66.2,98.1C456.7,203.9,432.5,230.9,389.6,230.9L389.6,230.9z"/>
</g>
<path class="st0" d="M725.6,190.4c7.8,2.8,16.4-1.2,19.2-9c2.8-7.8-1.2-16.4-9-19.2c-2.7-1-5.5-1.2-8.3-0.6l0.4,7.7l-3.7-6.6
	c-3.6,1.7-6.4,4.7-7.7,8.4c-0.5,1.3-0.8,2.7-0.9,4.1C715.2,181.9,719.3,188.1,725.6,190.4L725.6,190.4z"/>
<path class="st2" d="M743.6,279.9c-1.3-6.6,4.3-12.4,9.8-16.2s12-7.5,13.8-13.9c2.7-9.2-5.4-17.7-11.6-25
	c-4.7-5.4-8.6-11.3-11.9-17.7c-1.4-2.5-2.4-5.2-2.8-8c-0.5-4.1,0.8-8.2,2.1-12.1c4.4-13,9.1-25.9,14.1-38.7"/>
<path class="st2" d="M726.2,188.4c7.8,2.8,16.4-1.2,19.2-9c2.8-7.8-1.2-16.4-9-19.2c-2.7-1-5.5-1.2-8.3-0.6l0.4,7.7l-3.7-6.6
	c-3.6,1.7-6.4,4.7-7.7,8.4c-0.5,1.3-0.8,2.7-0.9,4.1C715.9,179.9,719.9,186.1,726.2,188.4L726.2,188.4z"/>
<path class="st0" d="M753,225c7.8,2.8,16.4-1.2,19.2-9c2.4-6.6-0.1-13.9-5.9-17.7l-1.8,5.9l-1.2-7.4c0,0,0,0,0,0
	c-7.8-2.9-16.4,1.1-19.2,8.9s1.1,16.4,8.9,19.2C752.9,225,753,225,753,225L753,225z"/>
<path class="st2" d="M753.7,222.3c7.8,2.8,16.4-1.2,19.2-9c2.4-6.6-0.1-13.9-5.9-17.7l-1.8,5.9l-1.2-7.4c0,0,0,0,0,0
	c-7.8-2.9-16.4,1.1-19.2,8.9s1.1,16.4,8.9,19.2C753.7,222.3,753.7,222.3,753.7,222.3L753.7,222.3z"/>
<path class="st0" d="M737.4,249.9c1.4,8.2,9.2,13.6,17.4,12.2c8.2-1.4,13.6-9.2,12.2-17.4c-1.4-8.2-9.2-13.6-17.4-12.2
	c-3.7,0.6-7,2.6-9.3,5.6l6.7,10.1l-9.1-5.3C737.1,245.2,737,247.6,737.4,249.9L737.4,249.9z"/>
<path class="st2" d="M738,247.9c1.4,8.2,9.2,13.6,17.4,12.2c8.2-1.4,13.6-9.2,12.2-17.4c-1.4-8.2-9.2-13.6-17.4-12.2
	c-3.7,0.6-7,2.6-9.3,5.6l6.7,10.1l-9.1-5.3C737.8,243.2,737.6,245.6,738,247.9z"/>
<path class="st0" d="M6.6,226.9c5.1,1.9,10.8-0.8,12.6-5.9c1.9-5.1-0.8-10.8-5.9-12.6c-1.7-0.6-3.6-0.8-5.4-0.4l0.2,5.1l-2.4-4.3
	c-2.4,1.1-4.2,3.1-5.1,5.5c-0.3,0.9-0.5,1.8-0.6,2.7C-0.2,221.4,2.4,225.4,6.6,226.9L6.6,226.9z"/>
<path class="st2" d="M18.5,285.7c-0.8-4.3,2.8-8.1,6.4-10.6s7.9-4.9,9.1-9.1c1.8-6.1-3.5-11.6-7.6-16.4c-3.1-3.6-5.7-7.5-7.8-11.6
	c-0.9-1.6-1.6-3.4-1.9-5.3c-0.3-2.7,0.5-5.4,1.4-7.9c2.9-8.5,6-17,9.3-25.4"/>
<path class="st2" d="M7,225.6c5.1,1.9,10.8-0.8,12.6-5.9c1.9-5.1-0.8-10.8-5.9-12.6c-1.7-0.6-3.6-0.8-5.4-0.4l0.2,5.1l-2.4-4.3
	c-2.4,1.1-4.2,3.1-5.1,5.5c-0.3,0.9-0.5,1.8-0.6,2.7C0.2,220.1,2.9,224.1,7,225.6L7,225.6z"/>
<path class="st0" d="M17.3,197.6c1.1-3.2,3.8-5.5,7.1-6.2l0.8,4.8l1.5-5.1c5.4,0.1,9.8,4.6,9.7,10c-0.1,5.4-4.6,9.8-10,9.7
	c-5.4-0.1-9.8-4.6-9.7-10C16.7,199.7,16.9,198.6,17.3,197.6L17.3,197.6z"/>
<path class="st2" d="M17.8,195.9c1.1-3.2,3.8-5.5,7.1-6.2l0.8,4.8l1.5-5.1c5.4,0.1,9.8,4.6,9.7,10c-0.1,5.4-4.6,9.8-10,9.7
	c-5.4-0.1-9.8-4.6-9.7-10C17.2,198,17.4,196.9,17.8,195.9L17.8,195.9z"/>
<path class="st0" d="M24.6,249.7c5.1,1.9,10.8-0.8,12.6-5.9c1.6-4.3-0.1-9.1-3.9-11.6l-1.2,3.9l-0.8-4.9l0,0
	c-5.1-1.9-10.8,0.7-12.7,5.8c-1.9,5.1,0.7,10.8,5.8,12.7C24.5,249.6,24.6,249.7,24.6,249.7z"/>
<path class="st2" d="M25.1,247.9c5.1,1.9,10.8-0.8,12.6-5.9c1.6-4.3-0.1-9.1-3.9-11.6l-1.2,3.9l-0.8-4.9l0,0
	c-5.1-1.9-10.8,0.7-12.7,5.8c-1.9,5.1,0.7,10.8,5.8,12.7C25,247.9,25,247.9,25.1,247.9L25.1,247.9z"/>
<path class="st0" d="M14.4,266c0.9,5.4,6,8.9,11.4,8c5.4-0.9,8.9-6,8-11.4c-0.9-5.4-6-8.9-11.4-8c-2.4,0.4-4.6,1.7-6.1,3.7l4.4,6.6
	l-6-3.5C14.2,262.9,14.1,264.5,14.4,266L14.4,266z"/>
<path class="st2" d="M14.8,264.7c0.9,5.4,6,8.9,11.4,8c5.4-0.9,8.9-6,8-11.4c-0.9-5.4-6-8.9-11.4-8c-2.4,0.4-4.6,1.7-6.1,3.7
	l4.4,6.6l-6-3.5C14.6,261.6,14.5,263.2,14.8,264.7L14.8,264.7z"/>
<ellipse class="st3" cx="346.6" cy="118" rx="12.2" ry="15.9"/>
<ellipse class="st3" cx="413.3" cy="118.4" rx="12.2" ry="15.9"/>
<path class="st3" d="M403.9,165.2c0,7.2-10,13-22.3,13s-22.3-5.8-22.3-13c0-6.2,7.5-11.4,17.5-12.7c1.6-0.2,3.2-0.3,4.8-0.3
	c2.7,0,5.4,0.3,8,0.9C398,155,403.9,159.7,403.9,165.2z"/>
<ellipse class="st2" cx="349.5" cy="114.4" rx="12.2" ry="15.9"/>
<ellipse class="st2" cx="416.2" cy="114.8" rx="12.2" ry="15.9"/>
<ellipse class="st2" cx="384.4" cy="161.6" rx="22.3" ry="13"/>
<path class="st4" d="M389.9,154.2c0,0.9-0.3,1.8-1,2.4c-0.6,0.6-1.4,1-2.3,1h-7.2c-1.8-0.1-3.3-1.6-3.2-3.5c0-0.7,0.2-1.4,0.6-2
	c1.6-0.2,3.2-0.3,4.8-0.3c2.7,0,5.4,0.3,8,0.9C389.8,153.3,389.9,153.7,389.9,154.2L389.9,154.2z"/>
<circle class="st4" cx="349.5" cy="110.1" r="3.6"/>
<circle class="st4" cx="416.5" cy="110.1" r="3.6"/>
<circle class="st5" cx="420.1" cy="144" r="3.6"/>
<rect x="-435" y="-306.3" class="st1" width="48" height="30.6"/>
</svg>
