<svg height="297.139" viewBox="0 0 774.377 297.139" width="774.377" xmlns="http://www.w3.org/2000/svg"><path d="m542.213 324.894c-61.924 0-106.384 39.728-106.384 132.428 0 105.06 44.46 132.87 106.384 132.87s109.033-30.458 109.033-132.87c0-109.473-47.109-132.428-109.033-132.428zm.407 230.425c-42.89 0-65.3-25.162-65.3-97.929 0-64.206 23.324-98.065 66.214-98.065s66.214 22.241 66.214 98.065c0 70.933-24.242 97.93-67.131 97.93z" fill="#ff6b6b" transform="translate(-167.145 -316.448)"/><path d="m309.879 520.959h-25.6v-75.394a15.1 15.1 0 0 0 -15.1-15.1h-6a15.1 15.1 0 0 0 -15.1 15.1v75.393h-72.216a8.62 8.62 0 0 1 -7.621-12.646l76.433-144.664a15.1 15.1 0 0 0 -6.9-20.707l-4.512-2.131a15.1 15.1 0 0 0 -19.763 6.535l-93.224 174.387a20.474 20.474 0 0 0 -2.418 9.652 20.474 20.474 0 0 0 20.474 20.474h109.747v47.674a18.1 18.1 0 0 0 18.1 18.1 18.1 18.1 0 0 0 18.1-18.1v-47.674h25.6a15.45 15.45 0 0 0 15.45-15.45 15.45 15.45 0 0 0 -15.45-15.45z" fill="#6c63ff" transform="translate(-78.275 -320.491)"/><path d="m967.875 520.959h-25.6v-75.394a15.1 15.1 0 0 0 -15.1-15.1h-6a15.1 15.1 0 0 0 -15.1 15.1v75.393h-72.216a8.62 8.62 0 0 1 -7.621-12.646l76.434-144.664a15.1 15.1 0 0 0 -6.9-20.707l-4.512-2.131a15.1 15.1 0 0 0 -19.763 6.535l-93.224 174.387a20.474 20.474 0 0 0 -2.418 9.652 20.474 20.474 0 0 0 20.474 20.474h109.747v47.674a18.1 18.1 0 0 0 18.1 18.1 18.1 18.1 0 0 0 18.1-18.1v-47.674h25.6a15.45 15.45 0 0 0 15.45-15.45 15.45 15.45 0 0 0 -15.451-15.45z" fill="#6c63ff" transform="translate(-262.179 -320.491)"/><g fill="none" stroke="#3f3d56" stroke-miterlimit="10"><path d="m319.682 508.706h-25.6v-75.394a15.1 15.1 0 0 0 -15.1-15.1h-6a15.1 15.1 0 0 0 -15.1 15.1v75.393h-72.217a8.62 8.62 0 0 1 -7.621-12.646l76.433-144.659a15.1 15.1 0 0 0 -6.9-20.707l-4.512-2.131a15.1 15.1 0 0 0 -19.763 6.535l-93.223 174.383a20.474 20.474 0 0 0 -2.418 9.652 20.474 20.474 0 0 0 20.474 20.474h109.747v47.674a18.1 18.1 0 0 0 18.1 18.1 18.1 18.1 0 0 0 18.1-18.1v-47.675h25.6a15.45 15.45 0 0 0 15.45-15.45 15.45 15.45 0 0 0 -15.449-15.45z" transform="translate(-81.015 -317.067)"/><path d="m986.254 508.706h-25.6v-75.394a15.1 15.1 0 0 0 -15.1-15.1h-6a15.1 15.1 0 0 0 -15.1 15.1v75.393h-72.215a8.62 8.62 0 0 1 -7.621-12.646l76.433-144.659a15.1 15.1 0 0 0 -6.9-20.707l-4.512-2.131a15.1 15.1 0 0 0 -19.763 6.535l-93.224 174.383a20.474 20.474 0 0 0 -2.418 9.652 20.474 20.474 0 0 0 20.474 20.474h109.747v47.674a18.1 18.1 0 0 0 18.1 18.1 18.1 18.1 0 0 0 18.1-18.1v-47.675h25.6a15.45 15.45 0 0 0 15.45-15.45 15.45 15.45 0 0 0 -15.451-15.45z" transform="translate(-267.315 -317.067)"/><path d="m561.818 313.866c-61.924 0-106.384 39.728-106.384 132.428 0 105.06 44.46 132.87 106.384 132.87s109.033-30.458 109.033-132.87c0-109.473-47.109-132.428-109.033-132.428zm.407 230.425c-42.89 0-65.3-25.162-65.3-97.929 0-64.206 23.324-98.065 66.214-98.065s66.214 22.24 66.214 98.065c0 70.933-24.242 97.93-67.131 97.93z" transform="translate(-172.624 -313.366)"/></g><path d="m1066.089 566.15a15 15 0 1 0 2-28.759l.375 7.718-3.652-6.615a14.939 14.939 0 0 0 -7.7 8.446 14.7 14.7 0 0 0 -.863 4.056 14.993 14.993 0 0 0 9.84 15.154z" fill="#57b894" transform="translate(-340.535 -375.746)"/><path d="m1093.9 650.669c-1.289-6.564 4.3-12.383 9.814-16.166s11.964-7.5 13.847-13.918c2.706-9.225-5.353-17.674-11.626-24.96a90.285 90.285 0 0 1 -11.905-17.694 24.36 24.36 0 0 1 -2.848-8.045c-.495-4.089.819-8.158 2.143-12.059q6.614-19.491 14.142-38.655" fill="none" stroke="#3f3d56" stroke-miterlimit="10" transform="translate(-350.281 -370.747)"/><path d="m1066.938 563.392a15 15 0 1 0 2-28.759l.375 7.718-3.652-6.615a14.939 14.939 0 0 0 -7.7 8.446 14.7 14.7 0 0 0 -.863 4.056 14.993 14.993 0 0 0 9.84 15.154z" fill="none" stroke="#3f3d56" stroke-miterlimit="10" transform="translate(-340.773 -374.975)"/><path d="m1092.1 511.641a14.978 14.978 0 0 1 10.793-9.509l1.235 7.338 2.289-7.706a14.994 14.994 0 1 1 -14.317 9.878z" fill="#57b894" transform="translate(-350.315 -365.881)"/><path d="m1093.241 507.963a14.978 14.978 0 0 1 10.793-9.509l1.235 7.338 2.289-7.706a14.994 14.994 0 1 1 -14.317 9.878z" fill="none" stroke="#3f3d56" stroke-miterlimit="10" transform="translate(-350.633 -364.853)"/><path d="m1104.205 614.2a14.994 14.994 0 0 0 13.271-26.675l-1.759 5.922-1.247-7.424a.261.261 0 0 0 -.038-.014 14.995 14.995 0 1 0 -10.227 28.192z" fill="#57b894" transform="translate(-351.187 -389.175)"/><path d="m1105.205 610.478a14.994 14.994 0 0 0 13.271-26.675l-1.759 5.922-1.247-7.424a.264.264 0 0 0 -.038-.014 14.995 14.995 0 1 0 -10.227 28.192z" fill="none" stroke="#3f3d56" stroke-miterlimit="10" transform="translate(-351.466 -388.134)"/><path d="m1086.291 653.231a14.987 14.987 0 1 0 2.89-11.742l6.681 10.056-9.129-5.337a14.854 14.854 0 0 0 -.442 7.023z" fill="#57b894" transform="translate(-348.878 -403.3)"/><path d="m1087.141 650.474a14.987 14.987 0 1 0 2.89-11.742l6.681 10.056-9.129-5.337a14.855 14.855 0 0 0 -.442 7.023z" fill="none" stroke="#3f3d56" stroke-miterlimit="10" transform="translate(-349.116 -402.53)"/><path d="m69.544 620.719a9.852 9.852 0 1 0 1.312-18.9l.247 5.071-2.4-4.346a9.815 9.815 0 0 0 -5.058 5.549 9.661 9.661 0 0 0 -.567 2.665 9.851 9.851 0 0 0 6.465 9.956z" fill="#57b894" transform="translate(-62.958 -393.786)"/><path d="m87.818 676.25c-.847-4.313 2.823-8.136 6.448-10.621s7.861-4.927 9.1-9.144c1.778-6.061-3.517-11.612-7.638-16.4a59.314 59.314 0 0 1 -7.828-11.625 16 16 0 0 1 -1.871-5.286c-.325-2.687.538-5.36 1.408-7.923q4.345-12.806 9.292-25.4" fill="none" stroke="#3f3d56" stroke-miterlimit="10" transform="translate(-69.36 -390.501)"/><path d="m70.107 618.907a9.852 9.852 0 1 0 1.312-18.9l.247 5.071-2.4-4.345a9.815 9.815 0 0 0 -5.058 5.549 9.661 9.661 0 0 0 -.567 2.665 9.85 9.85 0 0 0 6.465 9.955z" fill="none" stroke="#3f3d56" stroke-miterlimit="10" transform="translate(-63.115 -393.28)"/><path d="m86.637 584.905a9.841 9.841 0 0 1 7.091-6.248l.811 4.821 1.5-5.063a9.851 9.851 0 1 1 -9.406 6.49z" fill="#57b894" transform="translate(-69.384 -387.305)"/><path d="m87.388 582.49a9.841 9.841 0 0 1 7.091-6.248l.811 4.821 1.5-5.063a9.851 9.851 0 1 1 -9.406 6.49z" fill="none" stroke="#3f3d56" stroke-miterlimit="10" transform="translate(-69.594 -386.629)"/><path d="m94.592 652.291a9.851 9.851 0 0 0 8.719-17.526l-1.156 3.891-.819-4.878-.025-.009a9.852 9.852 0 1 0 -6.719 18.522z" fill="#57b894" transform="translate(-69.957 -402.609)"/><path d="m95.243 649.844a9.851 9.851 0 0 0 8.719-17.526l-1.156 3.891-.819-4.878-.025-.01a9.852 9.852 0 1 0 -6.719 18.522z" fill="none" stroke="#3f3d56" stroke-miterlimit="10" transform="translate(-70.139 -401.925)"/><path d="m82.817 677.933a9.847 9.847 0 1 0 1.9-7.715l4.39 6.607-6-3.507a9.76 9.76 0 0 0 -.29 4.615z" fill="#57b894" transform="translate(-68.439 -411.89)"/><path d="m83.38 676.121a9.847 9.847 0 1 0 1.9-7.715l4.39 6.607-6-3.507a9.759 9.759 0 0 0 -.29 4.615z" fill="none" stroke="#3f3d56" stroke-miterlimit="10" transform="translate(-68.597 -411.383)"/><ellipse cx="346.623" cy="118.04" fill="#2f2e41" rx="12.249" ry="15.851"/><ellipse cx="413.27" cy="118.401" fill="#2f2e41" rx="12.249" ry="15.851"/><path d="m606.172 537.469c0 7.162-10 12.969-22.336 12.969s-22.336-5.807-22.336-12.969c0-6.2 7.5-11.391 17.523-12.659a36.1 36.1 0 0 1 4.813-.31 36.525 36.525 0 0 1 8.019.865c8.372 1.866 14.317 6.585 14.317 12.104z" fill="#2f2e41" transform="translate(-202.269 -372.236)"/><ellipse cx="349.505" cy="114.438" fill="none" rx="12.249" ry="15.851" stroke="#3f3d56" stroke-miterlimit="10"/><ellipse cx="416.152" cy="114.798" fill="none" rx="12.249" ry="15.851" stroke="#3f3d56" stroke-miterlimit="10"/><ellipse cx="384.449" cy="161.631" fill="none" rx="22.336" ry="12.969" stroke="#3f3d56" stroke-miterlimit="10"/><path d="m598.689 526.306a3.557 3.557 0 0 1 -.951 2.444 3.126 3.126 0 0 1 -2.291 1.014h-7.205a3.361 3.361 0 0 1 -3.242-3.458 3.534 3.534 0 0 1 .591-1.975 33.878 33.878 0 0 1 4.809-.331 34.342 34.342 0 0 1 8.019.922 3.65 3.65 0 0 1 .27 1.384z" fill="#fff" transform="translate(-208.836 -372.096)"/><circle cx="349.505" cy="110.115" fill="#fff" r="3.603"/><circle cx="416.512" cy="110.115" fill="#fff" r="3.603"/><circle cx="420.115" cy="143.979" fill="#6c63ff" opacity=".3" r="3.603"/><circle cx="332.213" cy="143.979" fill="#6c63ff" opacity=".3" r="3.603"/></svg>