<?xml version="1.0" encoding="utf-8"?>
<!-- Generator: Adobe Illustrator 24.0.0, SVG Export Plug-In . SVG Version: 6.00 Build 0)  -->
<svg version="1.1" id="Layer_1" xmlns="http://www.w3.org/2000/svg" xmlns:xlink="http://www.w3.org/1999/xlink" x="0px" y="0px"
	 viewBox="0 0 774.4 297.1" style="enable-background:new 0 0 774.4 297.1;" xml:space="preserve">
<style type="text/css">
	.st0{fill:#D4DDE5;}
	.st1{fill:#28547C;}
	.st2{fill:none;stroke:#3F3D56;stroke-miterlimit:10;}
	.st3{fill:#2F2E41;}
	.st4{fill:#FFFFFF;}
	.st5{opacity:0.3;fill:#6C63FF;enable-background:new    ;}
	.st6{fill:none;}
	.st7{font-family:'MyriadPro-Regular';}
	.st8{font-size:293px;}
	.st9{fill:none;stroke:#3F3D56;stroke-width:0.5;stroke-miterlimit:10;}
	.st10{font-size:318px;}
</style>
<path class="st0" d="M398.5,17.6c-61.9,0-106.4,39.7-106.4,132.4c0,105.1,44.5,132.9,106.4,132.9s109-30.5,109-132.9
	C507.6,40.5,460.5,17.6,398.5,17.6L398.5,17.6z M399,248c-42.9,0-65.3-25.2-65.3-97.9c0-64.2,23.3-98.1,66.2-98.1
	s66.2,22.2,66.2,98.1C466.1,221,441.8,248,399,248L399,248z"/>
<path class="st1" d="M258.8,199.2h-25.6v-75.4c0-8.3-6.8-15.1-15.1-15.1l0,0h-6c-8.3,0-15.1,6.8-15.1,15.1l0,0v75.4h-72.2
	c-4.8,0-8.6-3.9-8.6-8.6c0-1.4,0.3-2.8,1-4l76.4-144.7c3.9-7.4,1.1-16.5-6.3-20.4c-0.2-0.1-0.4-0.2-0.6-0.3l-4.5-2.1
	c-7.3-3.4-16-0.6-19.8,6.5L69.2,200c-1.6,3-2.4,6.3-2.4,9.7c0,11.3,9.2,20.5,20.5,20.5H197v47.7c0,10,8.1,18.1,18.1,18.1
	s18.1-8.1,18.1-18.1v-47.7h25.6c8.5,0,15.5-6.9,15.5-15.5l0,0C274.3,206.1,267.4,199.2,258.8,199.2L258.8,199.2L258.8,199.2z"/>
<g>
	<path class="st2" d="M262.1,200.8h-25.6v-75.4c0-8.3-6.8-15.1-15.1-15.1l0,0h-6c-8.3,0-15.1,6.8-15.1,15.1l0,0v75.4h-72.2
		c-4.8,0-8.6-3.9-8.6-8.6c0-1.4,0.3-2.8,1-4l76.4-144.7c3.9-7.4,1.1-16.5-6.3-20.4c-0.2-0.1-0.4-0.2-0.6-0.3l-4.5-2.1
		c-7.3-3.4-16-0.6-19.8,6.5L72.5,201.6c-1.6,3-2.4,6.3-2.4,9.7c0,11.3,9.2,20.5,20.5,20.5h109.7v47.7c0,10,8.1,18.1,18.1,18.1
		s18.1-8.1,18.1-18.1v-47.7h25.6c8.5,0,15.5-6.9,15.5-15.5l0,0C277.6,207.7,270.7,200.8,262.1,200.8L262.1,200.8z"/>
	<path class="st2" d="M412.7,9.6c-61.9,0-106.4,39.7-106.4,132.4c0,105.1,44.5,132.9,106.4,132.9s109-30.5,109-132.9
		C521.7,32.6,474.6,9.6,412.7,9.6L412.7,9.6z M413.1,240.1c-42.9,0-65.3-25.2-65.3-97.9c0-64.2,23.3-98.1,66.2-98.1
		s66.2,22.2,66.2,98.1C480.2,213.1,456,240.1,413.1,240.1L413.1,240.1z"/>
</g>
<path class="st0" d="M706.3,187.7c7.8,2.8,16.4-1.2,19.2-9c2.8-7.8-1.2-16.4-9-19.2c-2.7-1-5.5-1.2-8.3-0.6l0.4,7.7L705,160
	c-3.6,1.7-6.4,4.7-7.7,8.4c-0.5,1.3-0.8,2.7-0.9,4.1C696,179.2,700,185.4,706.3,187.7L706.3,187.7z"/>
<path class="st2" d="M724.3,277.2c-1.3-6.6,4.3-12.4,9.8-16.2s12-7.5,13.8-13.9c2.7-9.2-5.4-17.7-11.6-25
	c-4.7-5.4-8.6-11.3-11.9-17.7c-1.4-2.5-2.4-5.2-2.8-8c-0.5-4.1,0.8-8.2,2.1-12.1c4.4-13,9.1-25.9,14.1-38.7"/>
<path class="st2" d="M706.9,185.7c7.8,2.8,16.4-1.2,19.2-9c2.8-7.8-1.2-16.4-9-19.2c-2.7-1-5.5-1.2-8.3-0.6l0.4,7.7l-3.7-6.6
	c-3.6,1.7-6.4,4.7-7.7,8.4c-0.5,1.3-0.8,2.7-0.9,4.1C696.6,177.2,700.6,183.4,706.9,185.7L706.9,185.7z"/>
<path class="st0" d="M733.7,222.3c7.8,2.8,16.4-1.2,19.2-9c2.4-6.6-0.1-13.9-5.9-17.7l-1.8,5.9l-1.2-7.4c0,0,0,0,0,0
	c-7.8-2.9-16.4,1.1-19.2,8.9s1.1,16.4,8.9,19.2C733.6,222.2,733.7,222.3,733.7,222.3L733.7,222.3z"/>
<path class="st2" d="M734.5,219.6c7.8,2.8,16.4-1.2,19.2-9c2.4-6.6-0.1-13.9-5.9-17.7l-1.8,5.9l-1.2-7.4c0,0,0,0,0,0
	c-7.8-2.9-16.4,1.1-19.2,8.9s1.1,16.4,8.9,19.2C734.4,219.6,734.4,219.6,734.5,219.6L734.5,219.6z"/>
<path class="st0" d="M718.1,247.2c1.4,8.2,9.2,13.6,17.4,12.2c8.2-1.4,13.6-9.2,12.2-17.4c-1.4-8.2-9.2-13.6-17.4-12.2
	c-3.7,0.6-7,2.6-9.3,5.6l6.7,10.1l-9.1-5.3C717.9,242.4,717.7,244.8,718.1,247.2L718.1,247.2z"/>
<path class="st2" d="M718.7,245.2c1.4,8.2,9.2,13.6,17.4,12.2c8.2-1.4,13.6-9.2,12.2-17.4c-1.4-8.2-9.2-13.6-17.4-12.2
	c-3.7,0.6-7,2.6-9.3,5.6l6.7,10.1l-9.1-5.3C718.5,240.4,718.3,242.9,718.7,245.2z"/>
<path class="st0" d="M20.2,214c5.1,1.9,10.8-0.8,12.6-5.9c1.9-5.1-0.8-10.8-5.9-12.6c-1.7-0.6-3.6-0.8-5.4-0.4l0.2,5.1l-2.4-4.3
	c-2.4,1.1-4.2,3.1-5.1,5.5c-0.3,0.9-0.5,1.8-0.6,2.7C13.4,208.4,16,212.5,20.2,214L20.2,214z"/>
<path class="st2" d="M32.1,272.8c-0.8-4.3,2.8-8.1,6.4-10.6s7.9-4.9,9.1-9.1c1.8-6.1-3.5-11.6-7.6-16.4c-3.1-3.6-5.7-7.5-7.8-11.6
	c-0.9-1.6-1.6-3.4-1.9-5.3c-0.3-2.7,0.5-5.4,1.4-7.9c2.9-8.5,6-17,9.3-25.4"/>
<path class="st2" d="M20.6,212.7c5.1,1.9,10.8-0.8,12.6-5.9c1.9-5.1-0.8-10.8-5.9-12.6c-1.7-0.6-3.6-0.8-5.4-0.4l0.2,5.1l-2.4-4.3
	c-2.4,1.1-4.2,3.1-5.1,5.5c-0.3,0.9-0.5,1.8-0.6,2.7C13.8,207.1,16.4,211.2,20.6,212.7L20.6,212.7z"/>
<path class="st0" d="M30.8,184.7c1.1-3.2,3.8-5.5,7.1-6.2l0.8,4.8l1.5-5.1c5.4,0.1,9.8,4.6,9.7,10c-0.1,5.4-4.6,9.8-10,9.7
	c-5.4-0.1-9.8-4.6-9.7-10C30.3,186.8,30.5,185.7,30.8,184.7L30.8,184.7z"/>
<path class="st2" d="M31.4,182.9c1.1-3.2,3.8-5.5,7.1-6.2l0.8,4.8l1.5-5.1c5.4,0.1,9.8,4.6,9.7,10c-0.1,5.4-4.6,9.8-10,9.7
	c-5.4-0.1-9.8-4.6-9.7-10C30.8,185.1,31,184,31.4,182.9L31.4,182.9z"/>
<path class="st0" d="M38.2,236.8c5.1,1.9,10.8-0.8,12.6-5.9c1.6-4.3-0.1-9.1-3.9-11.6l-1.2,3.9l-0.8-4.9l0,0
	c-5.1-1.9-10.8,0.7-12.7,5.8c-1.9,5.1,0.7,10.8,5.8,12.7C38.1,236.7,38.2,236.7,38.2,236.8z"/>
<path class="st2" d="M38.7,235c5.1,1.9,10.8-0.8,12.6-5.9c1.6-4.3-0.1-9.1-3.9-11.6l-1.2,3.9l-0.8-4.9l0,0
	c-5.1-1.9-10.8,0.7-12.7,5.8c-1.9,5.1,0.7,10.8,5.8,12.7C38.6,235,38.6,235,38.7,235L38.7,235z"/>
<path class="st0" d="M28,253.1c0.9,5.4,6,8.9,11.4,8c5.4-0.9,8.9-6,8-11.4c-0.9-5.4-6-8.9-11.4-8c-2.4,0.4-4.6,1.7-6.1,3.7l4.4,6.6
	l-6-3.5C27.8,250,27.7,251.6,28,253.1L28,253.1z"/>
<path class="st2" d="M28.4,251.8c0.9,5.4,6,8.9,11.4,8c5.4-0.9,8.9-6,8-11.4c-0.9-5.4-6-8.9-11.4-8c-2.4,0.4-4.6,1.7-6.1,3.7
	l4.4,6.6l-6-3.5C28.2,248.7,28.1,250.3,28.4,251.8L28.4,251.8z"/>
<ellipse class="st3" cx="373.9" cy="116.8" rx="12.2" ry="15.9"/>
<ellipse class="st3" cx="436.7" cy="127.5" rx="12.2" ry="15.9"/>
<path class="st3" d="M427.4,174.4c0,7.2-10,13-22.3,13s-22.3-5.8-22.3-13c0-6.2,7.5-11.4,17.5-12.7c1.6-0.2,3.2-0.3,4.8-0.3
	c2.7,0,5.4,0.3,8,0.9C421.4,164.1,427.4,168.9,427.4,174.4z"/>
<ellipse class="st2" cx="376.7" cy="113.2" rx="12.2" ry="15.9"/>
<ellipse class="st2" cx="439.6" cy="123.9" rx="12.2" ry="15.9"/>
<ellipse class="st2" cx="407.9" cy="170.8" rx="22.3" ry="13"/>
<path class="st4" d="M413.3,163.4c0,0.9-0.3,1.8-1,2.4c-0.6,0.6-1.4,1-2.3,1h-7.2c-1.8-0.1-3.3-1.6-3.2-3.5c0-0.7,0.2-1.4,0.6-2
	c1.6-0.2,3.2-0.3,4.8-0.3c2.7,0,5.4,0.3,8,0.9C413.2,162.4,413.3,162.9,413.3,163.4L413.3,163.4z"/>
<circle class="st4" cx="376.7" cy="108.9" r="3.6"/>
<circle class="st4" cx="440" cy="119.3" r="3.6"/>
<circle class="st5" cx="443.6" cy="153.1" r="3.6"/>
<rect x="-435" y="-306.3" class="st1" width="48" height="30.6"/>
<rect x="549.2" y="40.8" class="st6" width="186" height="210"/>
<text transform="matrix(1 0 0 1 549.2295 248.7889)" class="st1 st7 st8">5</text>
<rect x="545.9" y="27.6" class="st6" width="221.8" height="250.4"/>
<text transform="matrix(1 0 0 1 545.8738 253.3532)" class="st9 st7 st10">5</text>
</svg>
